<?xml version="1.0" encoding="utf-8"?>
<!-- Generator: Adobe Illustrator 22.0.1, SVG Export Plug-In . SVG Version: 6.00 Build 0)  -->
<svg version="1.1" id="Layer_1" xmlns="http://www.w3.org/2000/svg" xmlns:xlink="http://www.w3.org/1999/xlink" x="0px" y="0px"
	 viewBox="0 0 473.2 274.3" style="enable-background:new 0 0 473.2 274.3;" xml:space="preserve">
<style type="text/css">
	.st0{fill:#FFFFFF;}
</style>
<g>
	<g>
		<path class="st0" d="M339.3,131.3c-1.4,0-2.9-0.5-4.1-1.4l-76.4-57c-0.1-0.1-0.2-0.2-0.4-0.3l-70.2-52.4v20.7l100.2,78.1
			c2.3,1.8,3.2,4.8,2.3,7.6c-0.9,2.8-3.5,4.6-6.4,4.6H181.4c-3.8,0-6.8-3.1-6.8-6.8V47.7l-33.9-26.4v103.2c0,3.8-3.1,6.8-6.8,6.8
			c-3.8,0-6.8-3.1-6.8-6.8V7.4c0-2.6,1.5-5,3.8-6.1c2.3-1.1,5.1-0.9,7.2,0.7l36.5,28.5V6.8c0-2.6,1.5-4.9,3.8-6.1
			c2.3-1.2,5.1-0.9,7.1,0.6l77.1,57.5L335.1,2c2.1-1.6,4.8-1.9,7.2-0.8c2.3,1.1,3.8,3.5,3.8,6.1v117.2c0,2.6-1.5,4.9-3.8,6.1
			C341.4,131.1,340.3,131.3,339.3,131.3z M188.3,117.7h76.2l-76.2-59.3V117.7z M274,67.3l58.5,43.6V21.4L274,67.3z"/>
	</g>
	<g>
		<path class="st0" d="M1.4,235.5v-55.7h4.5v55.7H1.4z"/>
		<path class="st0" d="M64.5,194.4c-4.1-7-11.9-11.3-20.7-11.3c-13.7,0-24.2,9.9-24.2,24.5c0,14.5,10.7,24.4,24.2,24.4
			c9.5,0,17.6-5.1,21.6-12.9l4.5,1.3c-4.6,9.9-14.5,16.2-26.1,16.2c-16,0-28.9-12.2-28.9-29s12.9-29,28.9-29
			c10.9,0,20.3,5.7,25.3,14.6L64.5,194.4z"/>
		<path class="st0" d="M103.1,178.6c16,0,29,12.2,29,29s-13,29-29,29c-16,0-28.9-12.2-28.9-29S87.1,178.6,103.1,178.6z M103.1,232.1
			c13.5,0,24.3-10,24.3-24.5c0-14.6-10.7-24.5-24.3-24.5c-13.6,0-24.2,9.9-24.2,24.5C78.9,222.1,89.5,232.1,103.1,232.1z"/>
		<path class="st0" d="M194.9,231.1v4.4h-35.4v-55.7h4.5v51.3H194.9z"/>
		<path class="st0" d="M242.6,219.2h-29.4l-7.1,16.2h-5l24.7-55.7h4.1l24.8,55.7h-5L242.6,219.2z M240.7,215.2l-10.3-23.5
			c-1.2-2.9-2.5-6.4-2.5-6.4h-0.1c-0.1,0-1.4,3.6-2.5,6.4L215,215.2H240.7z"/>
		<path class="st0" d="M303.8,179.8v33.1c0,15.4-8,23.8-22.4,23.8c-14.6,0-22.4-8.4-22.4-23.8v-33.1h4.5V213
			c0,12.8,6,19.3,17.8,19.3s17.7-6.4,17.7-19.3v-33.3H303.8z"/>
		<path class="st0" d="M358.5,179.8v55.7h-4.3l-28.4-38.3c-4.8-6.5-7.2-10.1-7.2-10.1h-0.1c-0.1,0,0.2,6.5,0.2,14.5v33.9h-4.5v-55.7
			h4.3l28.3,38.1c4.4,5.9,7.2,9.9,7.3,9.9h0.1c0.1,0-0.2-6.7-0.2-14.2v-33.8H358.5z"/>
		<path class="st0" d="M417,194.4c-4.1-7-11.9-11.3-20.7-11.3c-13.7,0-24.2,9.9-24.2,24.5c0,14.5,10.7,24.4,24.2,24.4
			c9.5,0,17.6-5.1,21.6-12.9l4.5,1.3c-4.6,9.9-14.5,16.2-26.1,16.2c-16,0-28.9-12.2-28.9-29s12.9-29,28.9-29
			c10.9,0,20.3,5.7,25.3,14.6L417,194.4z"/>
		<path class="st0" d="M471.8,179.8v55.7h-4.6v-26.9h-33.1v26.9h-4.5v-55.7h4.5v24.4h33.1v-24.4H471.8z"/>
	</g>
	<g>
		<path class="st0" d="M18.6,255.7v18.6h-4.4v-4.5c0-4.4,0.2-6.6,0.1-6.6h0c0,0-1.5,2.5-1.7,2.8l-2.2,3.7H8.1L5.9,266
			c-0.2-0.3-1.6-2.8-1.7-2.8h0c0,0,0.1,2.2,0.1,6.6v4.5H0v-18.6h4.2l3.5,5.6c1.4,2.2,1.6,2.7,1.6,2.7h0c0,0,0.2-0.5,1.6-2.7l3.5-5.6
			H18.6z"/>
		<path class="st0" d="M130.2,271.4h-7.4l-1.1,2.9H117l7.4-18.6h4.2l7.4,18.6h-4.8L130.2,271.4z M128.8,267.5l-1.3-3.6
			c-0.4-1.1-0.9-2.7-0.9-2.7h0c0,0-0.5,1.7-0.9,2.7l-1.3,3.6H128.8z"/>
		<path class="st0" d="M247.8,270.1v4.2h-13.2v-18.6h4.5v14.4H247.8z"/>
		<path class="st0" d="M358.8,255.7v4.2h-5.7v14.4h-4.5v-14.4h-5.6v-4.2H358.8z"/>
		<path class="st0" d="M467.3,271.4H460l-1.1,2.9h-4.8l7.4-18.6h4.2l7.4,18.6h-4.8L467.3,271.4z M465.9,267.5l-1.3-3.6
			c-0.4-1.1-0.9-2.7-0.9-2.7h0c0,0-0.5,1.7-0.9,2.7l-1.3,3.6H465.9z"/>
	</g>
</g>
</svg>
