<?xml version="1.0" encoding="utf-8"?>
<!-- Generator: Adobe Illustrator 22.0.1, SVG Export Plug-In . SVG Version: 6.00 Build 0)  -->
<svg version="1.1" id="Layer_1" xmlns="http://www.w3.org/2000/svg" xmlns:xlink="http://www.w3.org/1999/xlink" x="0px" y="0px"
	 viewBox="0 0 70.2 42.1" style="enable-background:new 0 0 70.2 42.1;" xml:space="preserve">
<style type="text/css">
	.st0{fill:#FFFFFF;}
</style>
<path class="st0" d="M68,42.1c-0.5,0-0.9-0.1-1.3-0.4L42.2,23.4c0,0-0.1-0.1-0.1-0.1L19.6,6.5v6.6l32.1,25c0.7,0.6,1,1.6,0.7,2.4
	c-0.3,0.9-1.1,1.5-2.1,1.5H17.4c-1.2,0-2.2-1-2.2-2.2V15.3L4.4,6.8v33.1c0,1.2-1,2.2-2.2,2.2S0,41.1,0,39.9V2.4c0-0.8,0.5-1.6,1.2-2
	C2,0,2.9,0.1,3.5,0.6l11.7,9.1V2.2c0-0.8,0.5-1.6,1.2-2c0.7-0.4,1.6-0.3,2.3,0.2l24.7,18.4L66.6,0.6C67.3,0.1,68.2,0,69,0.4
	c0.8,0.4,1.2,1.1,1.2,2v37.5c0,0.8-0.5,1.6-1.2,2C68.7,42,68.3,42.1,68,42.1z M19.6,37.7H44l-24.4-19V37.7z M47.1,21.6l18.8,14V6.9
	L47.1,21.6z"/>
</svg>
