<?xml version="1.0" encoding="UTF-8"?>
<svg width="21px" height="21px" viewBox="0 0 21 21" version="1.1" xmlns="http://www.w3.org/2000/svg" xmlns:xlink="http://www.w3.org/1999/xlink">
    <defs></defs>
    <g id="Symbols" stroke="none" stroke-width="1" fill="none" fill-rule="evenodd">
        <g id="Header-Search" transform="translate(-1360.000000, -40.000000)" fill="#371D36">
            <path d="M1374.98438,53.1796875 L1381,59.1953125 L1379.19531,61 L1373.23438,54.984375 L1373.23438,54.0546875 L1372.85156,53.7265625 C1371.39322,54.966152 1369.69793,55.5859375 1367.76562,55.5859375 C1365.61457,55.5859375 1363.78256,54.8294346 1362.26953,53.3164062 C1360.7565,51.8033779 1360,49.9713649 1360,47.8203125 C1360,45.6692601 1360.7565,43.8281327 1362.26953,42.296875 C1363.78256,40.7656173 1365.59634,40 1367.71094,40 C1369.86199,40 1371.694,40.7656173 1373.20703,42.296875 C1374.72006,43.8281327 1375.47656,45.6692601 1375.47656,47.8203125 C1375.47656,49.7526138 1374.85678,51.4479094 1373.61719,52.90625 L1374,53.1796875 L1374.98438,53.1796875 Z M1364.11739,51.6326142 C1365.14785,52.627543 1366.39149,53.125 1367.84835,53.125 C1369.30521,53.125 1370.54885,52.6186599 1371.57931,51.6059645 C1372.60978,50.593269 1373.125,49.3585098 1373.125,47.9016497 C1373.125,46.4447897 1372.60978,45.2011473 1371.57931,44.1706853 C1370.54885,43.1402233 1369.30521,42.625 1367.84835,42.625 C1366.39149,42.625 1365.15673,43.1402233 1364.14404,44.1706853 C1363.13134,45.2011473 1362.625,46.4447897 1362.625,47.9016497 C1362.625,49.3585098 1363.12246,50.6021522 1364.11739,51.6326142 Z" id="ion-android-search---Ionicons"></path>
        </g>
    </g>
</svg>